<?xml version="1.0" encoding="UTF-8" standalone="no"?>
<svg
   xmlns:osb="http://www.openswatchbook.org/uri/2009/osb"
   xmlns:dc="http://purl.org/dc/elements/1.1/"
   xmlns:cc="http://creativecommons.org/ns#"
   xmlns:rdf="http://www.w3.org/1999/02/22-rdf-syntax-ns#"
   xmlns:svg="http://www.w3.org/2000/svg"
   xmlns="http://www.w3.org/2000/svg"
   xmlns:sodipodi="http://sodipodi.sourceforge.net/DTD/sodipodi-0.dtd"
   xmlns:inkscape="http://www.inkscape.org/namespaces/inkscape"
   inkscape:version="1.0 (4035a4fb49, 2020-05-01)"
   sodipodi:docname="edit_icon-icons.com_61193.svg"
   xml:space="preserve"
   width="128px"
   viewBox="0 0 128 128"
   version="1.1"
   style="enable-background:new 0 0 128 128;"
   id="Layer_1"
   height="128px"><metadata
     id="metadata13"><rdf:RDF><cc:Work
         rdf:about=""><dc:format>image/svg+xml</dc:format><dc:type
           rdf:resource="http://purl.org/dc/dcmitype/StillImage" /></cc:Work></rdf:RDF></metadata><defs
     id="defs11"><linearGradient
       osb:paint="solid"
       id="linearGradient2823"><stop
         id="stop2821"
         offset="0"
         style="stop-color:#002100;stop-opacity:1;" /></linearGradient></defs><sodipodi:namedview
     inkscape:current-layer="Layer_1"
     inkscape:window-maximized="1"
     inkscape:window-y="-9"
     inkscape:window-x="-9"
     inkscape:cy="51.990499"
     inkscape:cx="76.564422"
     inkscape:zoom="6.578125"
     showgrid="false"
     id="namedview9"
     inkscape:window-height="1013"
     inkscape:window-width="1920"
     inkscape:pageshadow="2"
     inkscape:pageopacity="0"
     guidetolerance="10"
     gridtolerance="10"
     objecttolerance="10"
     borderopacity="1"
     bordercolor="#666666"
     pagecolor="#ffffff" /><g
     style="mix-blend-mode:normal;fill:#ffffff;fill-opacity:1;fill-rule:nonzero"
     id="g6"><path
       id="path2"
       style="fill:#ffffff;fill-opacity:1;fill-rule:nonzero"
       d="M 36.108,110.473 106.544,40.037 87.963,21.457 17.526,91.893 c -0.378,0.302 -0.671,0.716 -0.803,1.22 l -5.476,20.803 c -0.01,0.04 -0.01,0.082 -0.019,0.121 -0.018,0.082 -0.029,0.162 -0.039,0.247 -0.007,0.075 -0.009,0.147 -0.009,0.222 -10e-4,0.077 10e-4,0.147 0.009,0.225 0.01,0.084 0.021,0.166 0.039,0.246 0.008,0.04 0.008,0.082 0.019,0.121 0.007,0.029 0.021,0.055 0.031,0.083 0.023,0.078 0.053,0.154 0.086,0.23 0.029,0.067 0.057,0.134 0.09,0.196 0.037,0.066 0.077,0.127 0.121,0.189 0.041,0.063 0.083,0.126 0.13,0.184 0.047,0.059 0.1,0.109 0.152,0.162 0.053,0.054 0.105,0.105 0.163,0.152 0.056,0.048 0.119,0.09 0.182,0.131 0.063,0.043 0.124,0.084 0.192,0.12 0.062,0.033 0.128,0.062 0.195,0.09 0.076,0.033 0.151,0.063 0.23,0.087 0.028,0.009 0.054,0.023 0.083,0.031 0.04,0.01 0.081,0.01 0.121,0.02 0.081,0.017 0.162,0.028 0.246,0.037 0.077,0.009 0.148,0.011 0.224,0.01 0.075,0 0.147,-10e-4 0.223,-0.008 0.084,-0.011 0.166,-0.022 0.247,-0.039 0.04,-0.01 0.082,-0.01 0.121,-0.02 l 20.804,-5.475 c 0.505,-0.132 0.92,-0.425 1.22,-0.805 z m -16.457,-2.124 c -0.535,-0.535 -1.267,-0.746 -1.964,-0.649 L 20.87,95.606 32.396,107.131 20.3,110.313 c 0.098,-0.697 -0.112,-1.429 -0.649,-1.964 z" /><path
       id="path4"
       style="fill:#ffffff;fill-opacity:1;fill-rule:nonzero"
       d="m 109.702,36.879 -18.58,-18.581 7.117,-7.117 c 0,0 12.656,4.514 18.58,18.582 z" /></g></svg>
